<?xml version="1.0" encoding="UTF-8" standalone="no"?>
<!DOCTYPE svg PUBLIC "-//W3C//DTD SVG 1.1//EN" "http://www.w3.org/Graphics/SVG/1.1/DTD/svg11.dtd">
<svg width="100%" height="100%" viewBox="0 0 9 7" version="1.1" xmlns="http://www.w3.org/2000/svg" xmlns:xlink="http://www.w3.org/1999/xlink" xml:space="preserve" xmlns:serif="http://www.serif.com/" style="fill-rule:evenodd;clip-rule:evenodd;stroke-linejoin:round;stroke-miterlimit:2;">
    <rect id="Artboard1" x="0" y="0" width="8.152" height="6.487" style="fill:none;"/>
    <g id="Artboard11" serif:id="Artboard1">
        <path d="M6.885,0.207C7.024,0.074 7.209,0 7.402,0C7.813,0 8.152,0.339 8.152,0.75C8.152,0.938 8.081,1.119 7.955,1.257L3.965,6.247C3.823,6.4 3.624,6.487 3.415,6.487C3.216,6.487 3.025,6.407 2.885,6.267L0.239,3.621C0.087,3.479 0,3.28 0,3.072C0,2.661 0.339,2.322 0.75,2.322C0.958,2.322 1.157,2.409 1.299,2.561L3.393,4.654L6.866,0.229C6.872,0.221 6.879,0.214 6.886,0.207L6.885,0.207Z" style="fill-rule:nonzero;"/>
    </g>
</svg>
